#!OML:ASF F:\VICON\USERDATA\INSTALL\rory3\rory3.ASF
:FULLY-SPECIFIED
:DEGREES
1741
root -0.652295 15.0364 16.2896 453.061 39.1002 113.906
lowerback -21.7913 -11.0222 4.66909
upperback -14.9161 -14.1188 1.99397
thorax -5.21956 -7.19593 -2.61882
lowerneck 0.772766 -24.3263 -17.8883
upperneck -7.99731 -32.0447 32.095
head 5.99759 -15.7662 8.77864
rclavicle 5.08889e-014 -4.45278e-014
rhumerus -13.831 -41.2039 24.7145
rradius 37.5021
rwrist -12.3353
rhand -18.6972 -53.0132
rfingers 7.12502
rthumb -172.403 457.143
lclavicle 5.08889e-014 -4.45278e-014
lhumerus -4.70604 15.944 9.62545
lradius 23.7262
lwrist 36.9876
lhand -32.4323 -10.6999
lfingers 7.12502
lthumb -5.66612 19.2043
rfemur -31.896 -4.80705 32.5801
rtibia 53.9328
rfoot -1.5204 -20.9436
rtoes 24.3098
lfemur 14.3596 27.226 -5.9017
ltibia 81.676
lfoot 13.3059 -4.02826
ltoes -4.04272
1742
root -0.6275 15.0367 16.2801 454.03 38.9422 114.51
lowerback -21.8464 -10.9884 4.88655
upperback -14.971 -14.0929 2.03255
thorax -5.30196 -7.19426 -2.68219
lowerneck 1.07176 -24.2194 -17.9408
upperneck -7.93916 -31.9299 32.047
head 5.94112 -15.7337 8.84044
rclavicle -8.90555e-014 -2.54444e-014
rhumerus -12.8709 -41.8072 24.0723
rradius 36.9908
rwrist -11.7714
rhand -23.6827 -59.2137
rfingers 7.12502
rthumb -177.216 450.825
lclavicle -8.90555e-014 -2.54444e-014
lhumerus -4.71033 15.8629 9.55164
lradius 23.683
lwrist 36.8132
lhand -32.3778 -10.2445
lfingers 7.12502
lthumb -5.61351 19.6612
rfemur -31.9068 -4.8751 32.8231
rtibia 53.9325
rfoot -1.48867 -20.9038
rtoes 23.7033
lfemur 14.2857 27.1549 -5.82464
ltibia 81.692
lfoot 13.3781 -3.70535
ltoes -3.87486
1743
root -0.602892 15.0256 16.2718 455 38.6381 115.109
lowerback -21.9758 -11.1577 4.82549
upperback -15.0082 -14.2973 2.09838
thorax -5.26724 -7.28892 -2.63064
lowerneck 1.43853 -23.9921 -17.6688
upperneck -8.05101 -31.588 32.0616
head 5.73367 -15.6192 8.97094
rclavicle -1.11319e-013 -1.27222e-014
rhumerus -12.8082 -41.2554 23.5899
rradius 37.2987
rwrist -12.5833
rhand -22.9294 -56.608
rfingers 7.12502
rthumb -176.489 453.441
lclavicle -1.11319e-013 -1.27222e-014
lhumerus -5.13294 15.1918 8.98104
lradius 24.014
lwrist 37.4762
lhand -32.1394 -9.68021
lfingers 7.12502
lthumb -5.38332 20.2314
rfemur -32.0075 -4.90706 32.9331
rtibia 54.0781
rfoot -1.22118 -20.8215
rtoes 21.1004
lfemur 14.2336 27.2171 -5.69795
ltibia 81.7809
lfoot 13.3596 -3.94202
ltoes -4.66949
1744
root -0.577295 15.0126 16.2633 455.993 38.294 115.749
lowerback -22.0986 -10.9468 4.9955
upperback -15.0003 -14.0441 1.91766
thorax -5.27311 -7.17881 -2.88746
lowerneck 1.37433 -24.2267 -17.9145
upperneck -8.07952 -31.9203 32.2059
head 5.8811 -15.7652 8.92503
rclavicle -3.97569e-014 7.63333e-014
rhumerus -13.8019 -40.4173 24.3445
rradius 37.6867
rwrist -12.9211
rhand -19.8522 -53.2376
rfingers 7.12502
rthumb -173.518 456.882
lclavicle -3.97569e-014 7.63333e-014
lhumerus -4.79937 13.879 9.127
lradius 24.3589
lwrist 38.6281
lhand -32.1006 -9.99961
lfingers 7.12502
lthumb -5.34586 19.913
rfemur -32.1703 -4.9509 33.0446
rtibia 54.421
rfoot -0.850284 -20.7782
rtoes 22.8253
lfemur 14.2386 27.3173 -5.48615
ltibia 81.8623
lfoot 13.2579 -4.13278
ltoes -4.22458
1745
root -0.547853 15.0216 16.2686 456.984 37.6991 116.387
lowerback -22.2813 -11.0362 4.60047
upperback -14.938 -14.0956 2.04233
thorax -4.9761 -7.15745 -2.62418
lowerneck 1.05536 -24.2944 -18.0922
upperneck -8.01261 -32.0062 32.1557
head 5.98887 -15.7755 8.85661
rclavicle -1.19271e-013 -1.04958e-013
rhumerus -13.9569 -40.7677 24.7369
rradius 37.6004
rwrist -11.9794
rhand -26.1218 -65.9569
rfingers 7.12502
rthumb -179.572 635.936
lclavicle -1.19271e-013 -1.04958e-013
lhumerus -4.93332 13.578 9.2523
lradius 24.4316
lwrist 39.0914
lhand -32.3697 -10.2961
lfingers 7.12502
lthumb -5.60573 19.6097
rfemur -32.3885 -5.08031 32.8167
rtibia 54.9037
rfoot -1.55264 -20.716
rtoes 25.0468
lfemur 14.2111 27.2844 -5.81366
ltibia 81.7345
lfoot 13.3577 -4.4135
ltoes -5.45178
1746
root -0.514483 15.0482 16.2849 458.006 37.3092 117.076
lowerback -22.4219 -11.1994 4.4169
upperback -14.8873 -14.2742 2.27117
thorax -4.7504 -7.21299 -2.36453
lowerneck 0.874125 -24.1729 -17.9933
upperneck -8.03799 -31.7912 31.9525
head 5.90061 -15.6716 8.83383
rclavicle 5.88403e-014 -1.04958e-013
rhumerus -13.7115 -41.8137 24.8474
rradius 37.1773
rwrist -10.4115
rhand -23.6891 -62.8683
rfingers 7.12502
rthumb -177.222 632.83
lclavicle 5.88403e-014 -1.04958e-013
lhumerus -5.18303 14.0276 9.25414
lradius 24.2891
lwrist 38.9443
lhand -32.4398 -10.5261
lfingers 7.12502
lthumb -5.67337 19.378
rfemur -32.6151 -5.17237 32.7093
rtibia 55.4578
rfoot -2.89823 -20.3582
rtoes 28.4306
lfemur 14.1904 27.1993 -5.93837
ltibia 81.5364
lfoot 13.4204 -4.3932
ltoes -5.22692
1747
root -0.481606 15.0788 16.3045 459.08 37.5806 117.829
lowerback -22.5553 -11.2115 5.02341
upperback -14.8029 -14.385 2.56698
thorax -4.67504 -7.28587 -2.4067
lowerneck 0.923655 -24.0399 -17.9211
upperneck -8.35574 -31.5226 31.9391
head 5.72421 -15.5824 8.91482
rclavicle -2.22639e-014 -2.8625e-014
rhumerus -13.4416 -41.1237 24.5475
rradius 37.7977
rwrist -12.2991
rhand -20.3522 -54.3994
rfingers 7.12502
rthumb -174 455.706
lclavicle -2.22639e-014 -2.8625e-014
lhumerus -5.34939 14.8325 9.26354
lradius 24.1698
lwrist 38.3016
lhand -32.0118 -10.8648
lfingers 7.12502
lthumb -5.26017 19.0499
rfemur -32.6581 -5.21688 33.3409
rtibia 55.7943
rfoot -3.12573 -19.6539
rtoes 29.7548
lfemur 14.2377 27.1665 -5.14649
ltibia 81.3532
lfoot 13.4675 -4.28683
ltoes -4.79576
1748
root -0.452029 15.0956 16.3132 460.15 37.827 118.561
lowerback -22.5427 -10.8992 6.0122
upperback -14.8934 -14.1145 2.44824
thorax -5.06403 -7.2279 -2.94205
lowerneck 1.15494 -24.1866 -18.0221
upperneck -8.38451 -31.7434 32.0176
head 5.76112 -15.7023 8.91044
rclavicle -1.1609e-013 2.8625e-014
rhumerus -14.2677 -40.1346 25.226
rradius 37.8349
rwrist -12.1466
rhand -22.9931 -63.0236
rfingers 7.12502
rthumb -176.55 632.975
lclavicle -1.1609e-013 2.8625e-014
lhumerus -4.95532 14.8278 9.46996
lradius 24.1636
lwrist 37.8779
lhand -31.4948 -12.3943
lfingers 7.12502
lthumb -4.76097 17.5322
rfemur -32.835 -5.23032 33.9584
rtibia 56.1071
rfoot -3.17569 -19.3292
rtoes 30.392
lfemur 14.2598 27.1645 -4.35505
ltibia 81.2206
lfoot 13.4144 -4.11661
ltoes -5.09504
1749
root -0.418126 15.1133 16.3276 461.199 37.7851 119.257
lowerback -22.6951 -10.7708 6.42855
upperback -14.8521 -14.0117 2.48891
thorax -5.03377 -7.19493 -3.12054
lowerneck 0.90135 -24.3844 -18.1556
upperneck -8.12204 -32.0602 32.127
head 5.9966 -15.8035 8.81815
rclavicle 1.76521e-013 1.01778e-013
rhumerus -13.8337 -39.5321 24.995
rradius 38.0454
rwrist -15.0922
rhand -22.5617 -57.6419
rfingers 7.12502
rthumb -176.134 812.413
lclavicle 1.76521e-013 1.01778e-013
lhumerus -4.81636 14.5298 9.60429
lradius 24.1706
lwrist 38.2343
lhand -31.824 -14.0348
lfingers 7.12502
lthumb -5.07878 15.8843
rfemur -33.0224 -5.28844 34.2928
rtibia 56.2019
rfoot -3.98193 -19.6441
rtoes 32.811
lfemur 14.2884 27.192 -3.84292
ltibia 81.1031
lfoot 13.4804 -4.20876
ltoes -4.89971
1750
root -0.390592 15.1193 16.3384 462.24 37.66 119.936
lowerback -22.7902 -10.7093 6.77557
upperback -14.8891 -13.9755 2.50198
thorax -5.11913 -7.19817 -3.2794
lowerneck 0.729999 -24.5032 -18.3034
upperneck -7.66005 -32.3246 32.2448
head 6.27417 -15.8676 8.7503
rclavicle -8.11041e-014 -1.59028e-014
rhumerus -13.6916 -39.5483 24.9948
rradius 38.2612
rwrist -14.7288
rhand -24.1747 -68.0443
rfingers 7.12502
rthumb -177.691 638.012
lclavicle -8.11041e-014 -1.59028e-014
lhumerus -4.72492 14.3592 9.50888
lradius 24.229
lwrist 38.3904
lhand -32.7896 -12.5288
lfingers 7.12502
lthumb -6.01104 17.366
rfemur -33.1513 -5.37413 34.645
rtibia 56.151
rfoot -4.8238 -20.1826
rtoes 33.1037
lfemur 14.2221 27.2267 -3.4324
ltibia 81.1068
lfoot 13.6762 -4.49451
ltoes -3.8298
1751
root -0.383072 15.0773 16.3067 463.224 37.0983 120.518
lowerback -22.8825 -10.7568 6.70062
upperback -15.0251 -14.0046 2.39143
thorax -5.25019 -7.21821 -3.35578
lowerneck 0.962957 -24.4327 -18.2559
upperneck -7.41715 -32.292 32.2357
head 6.2946 -15.8506 8.77942
rclavicle 8.11041e-014 2.8625e-014
rhumerus -13.8139 -40.3599 25.2941
rradius 38.4728
rwrist -9.98249
rhand -13.3961 -66.0577
rfingers 7.12502
rthumb -167.289 635.651
lclavicle 8.11041e-014 2.8625e-014
lhumerus -4.77126 14.4605 9.27255
lradius 24.2938
lwrist 38.1554
lhand -33.1306 -10.2772
lfingers 7.12502
lthumb -6.34025 19.6079
rfemur -32.8818 -5.40517 34.6229
rtibia 55.6541
rfoot -5.03684 -20.9438
rtoes 32.3334
lfemur 13.9166 27.2203 -3.70084
ltibia 81.4472
lfoot 13.6149 -4.65726
ltoes -3.3035
1752
root -0.363431 15.0627 16.2951 464.157 36.2067 121.01
lowerback -23.1324 -10.9267 6.19023
upperback -15.0882 -14.1367 2.34197
thorax -5.0948 -7.24733 -3.21768
lowerneck 1.24093 -24.2348 -18.0296
upperneck -7.51333 -31.9858 32.0986
head 6.08485 -15.7464 8.85308
rclavicle -1.19271e-013 -6.04305e-014
rhumerus -13.9199 -39.6887 25.149
rradius 37.5067
rwrist -12.1947
rhand -16.7729 -50.425
rfingers 7.12502
rthumb -170.545 459.807
lclavicle -1.19271e-013 -6.04305e-014
lhumerus -5.0616 14.3865 9.03457
lradius 24.2477
lwrist 38.3209
lhand -32.853 -10.758
lfingers 7.12502
lthumb -6.07234 19.135
rfemur -32.7408 -5.32479 34.0884
rtibia 55.1944
rfoot -5.0838 -21.2252
rtoes 32.7216
lfemur 13.6556 27.1571 -4.49826
ltibia 81.5814
lfoot 13.6249 -4.59294
ltoes -2.9702
